<svg width="24" height="24" viewBox="0 0 24 24" fill="none" xmlns="http://www.w3.org/2000/svg">
<path d="M12 2.3999C6.69839 2.3999 2.39999 6.6983 2.39999 11.9999C2.39999 16.4983 5.49759 20.2623 9.67359 21.3039C9.62879 21.1743 9.59999 21.0239 9.59999 20.8375V19.1967C9.21039 19.1967 8.55759 19.1967 8.39359 19.1967C7.73679 19.1967 7.15279 18.9143 6.86959 18.3895C6.55519 17.8063 6.50079 16.9143 5.72159 16.3687C5.49039 16.1871 5.66639 15.9799 5.93279 16.0079C6.42479 16.1471 6.83279 16.4847 7.21679 16.9855C7.59919 17.4871 7.77919 17.6007 8.49359 17.6007C8.83999 17.6007 9.35839 17.5807 9.84639 17.5039C10.1088 16.8375 10.5624 16.2239 11.1168 15.9343C7.91999 15.6055 6.39439 14.0151 6.39439 11.8559C6.39439 10.9263 6.79039 10.0271 7.46319 9.2695C7.24239 8.5175 6.96479 6.9839 7.54799 6.3999C8.98639 6.3999 9.85599 7.3327 10.0648 7.5847C10.7816 7.3391 11.5688 7.1999 12.396 7.1999C13.2248 7.1999 14.0152 7.3391 14.7336 7.5863C14.94 7.3359 15.8104 6.3999 17.252 6.3999C17.8376 6.9847 17.5568 8.5247 17.3336 9.2751C18.0024 10.0311 18.396 10.9279 18.396 11.8559C18.396 14.0135 16.8728 15.6031 13.6808 15.9335C14.5592 16.3919 15.2 17.6799 15.2 18.6503V20.8375C15.2 20.9207 15.1816 20.9807 15.172 21.0519C18.9128 19.7407 21.6 16.1887 21.6 11.9999C21.6 6.6983 17.3016 2.3999 12 2.3999Z" fill="#EEEEEE" fill-opacity="0.7"/>
</svg>
