<svg width="26" height="26" viewBox="0 0 26 26" fill="none" xmlns="http://www.w3.org/2000/svg">
<path d="M8.66667 3.25C5.67992 3.25 3.25 5.67992 3.25 8.66667V17.3333C3.25 20.3201 5.67992 22.75 8.66667 22.75H17.3333C20.3201 22.75 22.75 20.3201 22.75 17.3333V8.66667C22.75 5.67992 20.3201 3.25 17.3333 3.25H8.66667ZM8.66667 5.41667H17.3333C19.1252 5.41667 20.5833 6.87483 20.5833 8.66667V17.3333C20.5833 19.1252 19.1252 20.5833 17.3333 20.5833H8.66667C6.87483 20.5833 5.41667 19.1252 5.41667 17.3333V8.66667C5.41667 6.87483 6.87483 5.41667 8.66667 5.41667ZM18.4167 6.5C18.1293 6.5 17.8538 6.61414 17.6506 6.8173C17.4475 7.02047 17.3333 7.29602 17.3333 7.58333C17.3333 7.87065 17.4475 8.1462 17.6506 8.34937C17.8538 8.55253 18.1293 8.66667 18.4167 8.66667C18.704 8.66667 18.9795 8.55253 19.1827 8.34937C19.3859 8.1462 19.5 7.87065 19.5 7.58333C19.5 7.29602 19.3859 7.02047 19.1827 6.8173C18.9795 6.61414 18.704 6.5 18.4167 6.5ZM13 7.58333C10.0133 7.58333 7.58333 10.0133 7.58333 13C7.58333 15.9868 10.0133 18.4167 13 18.4167C15.9868 18.4167 18.4167 15.9868 18.4167 13C18.4167 10.0133 15.9868 7.58333 13 7.58333ZM13 9.75C14.7918 9.75 16.25 11.2082 16.25 13C16.25 14.7918 14.7918 16.25 13 16.25C11.2082 16.25 9.75 14.7918 9.75 13C9.75 11.2082 11.2082 9.75 13 9.75Z" fill="#EEEEEE" fill-opacity="0.7"/>
</svg>
